<svg width="418" height="324" viewBox="0 0 418 324" fill="none" xmlns="http://www.w3.org/2000/svg">
<g clip-path="url(#clip0_8_36)">
<path d="M173.554 123.142C173.554 145.541 157.681 161.516 137.88 161.516C117.302 161.516 103.633 146.252 103.633 123.852V84.7674H50.8354V119.588C50.8354 173.657 87.0186 208.418 137.88 208.418C187.965 208.418 226.351 173.657 226.351 119.588V6.59731H173.554V123.142Z" fill="#D9B3F7"/>
<path d="M124.319 106.075C124.319 106.075 125.938 85.9151 140.021 99.3587" stroke="#000E29" stroke-width="5.67088" stroke-miterlimit="1.5" stroke-linecap="round" stroke-linejoin="round"/>
<path d="M150.287 95.8603C150.287 95.8603 154.438 77.0963 166.315 91.6841" stroke="#000E29" stroke-width="5.67088" stroke-miterlimit="1.5" stroke-linecap="round" stroke-linejoin="round"/>
<path d="M145.997 121.811C145.997 121.811 150.266 126.475 155.752 124.07" stroke="#000E29" stroke-width="5.67088" stroke-miterlimit="1.5" stroke-linecap="round" stroke-linejoin="round"/>
<path fill-rule="evenodd" clip-rule="evenodd" d="M243.92 34.5844C236.237 38.0565 240.235 58.0238 246.722 59.6631C251.93 60.9797 307.2 50.0255 311.567 49.4793C315.934 48.9331 329.672 32.3017 329.352 30.2701C328.997 28.0169 310.592 24.7087 306.957 24.6575C303.322 24.6062 254.408 29.8437 243.92 34.5844Z" fill="#FA6934"/>
<path d="M326.484 34.9121C328.596 34.9121 330.308 33.189 330.308 31.0633C330.308 28.9377 328.596 27.2145 326.484 27.2145C324.372 27.2145 322.66 28.9377 322.66 31.0633C322.66 33.189 324.372 34.9121 326.484 34.9121Z" fill="#000E29"/>
<path d="M67.5562 112.529C67.5562 112.529 18.8899 132.38 4.11885 192.786" stroke="#000E29" stroke-width="5.67088" stroke-miterlimit="1.5" stroke-linecap="round" stroke-linejoin="round"/>
<path d="M204.772 112.428C204.772 112.428 245.51 86.2916 274.342 58.0628C274.342 58.0628 267.749 54.3586 272.665 43.6055" stroke="#000E29" stroke-width="5.67088" stroke-miterlimit="1.5" stroke-linecap="round" stroke-linejoin="round"/>
<path d="M157.623 194.755C157.623 194.755 158.786 320.18 159.228 319.468C159.67 318.756 179.164 318.559 179.164 318.559" stroke="#000E29" stroke-width="5.67088" stroke-miterlimit="1.5" stroke-linecap="round" stroke-linejoin="round"/>
<path d="M117.177 198.399C117.177 198.399 115.429 263.157 44.408 303.304L57.0602 317.976" stroke="#000E29" stroke-width="5.67088" stroke-miterlimit="1.5" stroke-linecap="round" stroke-linejoin="round"/>
<path d="M339.359 31.8154C339.359 31.8154 360.141 62.5068 377.029 30.9529C377.029 30.9529 384.125 11.7794 369.698 8.85886C345.957 5.46265 377.619 62.0607 413.003 8.68391" stroke="#000E29" stroke-width="5.63571" stroke-miterlimit="1.5" stroke-linecap="round" stroke-linejoin="round"/>
</g>
<defs>
<clipPath id="clip0_8_36">
<rect width="418" height="324" fill="white"/>
</clipPath>
</defs>
</svg>
