
<svg xmlns="http://www.w3.org/2000/svg" xmlns:xlink="http://www.w3.org/1999/xlink" width="507" height="817" viewBox="0 0 507 817" fill="none">
    <path id="u" d="M335.029,288.582C335.029,344.046,295.834,383.602,246.939,383.602C196.126,383.602,162.373,345.806,162.373,290.341L162.373,193.561L31.9999,193.561L31.9999,279.783C31.9999,413.664,121.347,499.739,246.939,499.739C370.613,499.739,465.401,413.664,465.401,279.783L465.401,0L335.029,0L335.029,288.582Z" fill="#D9B3F7" transform="translate(248.7,249.869) translate(-248.7,-249.869)"/>
    <path id="Mund" d="M219.106,264.992C221.292,267.506,247.69,296.608,277.756,263.85" stroke="#000E29" stroke-width="18.6" stroke-miterlimit="1.5" stroke-linecap="round" stroke-linejoin="round" transform="translate(248.431,271.578) translate(-248.431,-271.578)"/>
    <path id="Linkes-Auge" d="M222,210C222,210,222,210,222,210" stroke="#000E29" stroke-width="18.6" stroke-miterlimit="1.5" stroke-linecap="round" stroke-linejoin="round" transform="translate(200,210) translate(0,0) translate(-213,-210)"/>
    <path id="rechtes-Auge" d="M284,210C284,210,284.139,210,285,210" stroke="#000E29" stroke-width="18.6" stroke-miterlimit="1.5" stroke-linecap="round" stroke-linejoin="round" transform="translate(284.5,210) translate(-284.5,-210)"/>
    <path id="Arm-rechts" d="M455.284,258C455.284,258,439,397.5,385.5,533.5C385.5,533.5,368.5,533.5,334.5,533.5" stroke="#000E29" stroke-width="18.6" stroke-miterlimit="1.5" stroke-linecap="round" stroke-linejoin="round" transform="translate(417.467,351) translate(-417.467,-351)"/>
    <path id="Bein-rechts" d="M318.659,475L322.5,806.5L378.5,806.5" stroke="#000E29" stroke-width="18.6" stroke-miterlimit="1.5" stroke-linecap="round" stroke-linejoin="round" transform="translate(348.33,641.058) translate(-348.33,-641.058)"/>
    <path id="Bein-links" d="M211.25,484.705C211.25,484.705,181.5,669.357,153.5,806.5L97.5,806.5" stroke="#000E29" stroke-width="18.6" stroke-miterlimit="1.5" stroke-linecap="round" stroke-linejoin="round" transform="translate(154.125,643.924) translate(-154.125,-643.924)"/>
    <g id="Kamera" transform="translate(252.284,433.5) translate(0,0) translate(-127,-100)">
        <path d="M125.284,248C125.284,242.477,129.761,238,135.284,238L369.284,238C374.807,238,379.284,242.477,379.284,248L379.284,411L125.284,411L125.284,248Z" fill="#F7F7E7" transform="translate(127,86.5) translate(-252.284,-324.5)"/>
        <path stroke="#D9B3F7" stroke-width="8" d="M235,334L235,411" transform="translate(109.716,134.5) translate(-235,-372.5)"/>
        <path stroke="#FA6934" stroke-width="8" d="M243,334L243,411" transform="translate(117.716,134.5) translate(-243,-372.5)"/>
        <path stroke="#025BFF" stroke-width="8" d="M267,334L267,411" transform="translate(141.716,134.5) translate(-267,-372.5)"/>
        <path stroke="#F7F7E7" stroke-width="8" d="M251,334L251,411" transform="translate(125.716,134.5) translate(-251,-372.5)"/>
        <path stroke="#AEFFC4" stroke-width="8" d="M259,334L259,411" transform="translate(133.716,134.5) translate(-259,-372.5)"/>
        <ellipse fill="#000E29" rx="41.5" ry="41.5" transform="translate(125.216,60.5)"/>
        <ellipse fill="#00143D" rx="20" ry="20" transform="translate(127,61)"/>
        <ellipse id="_a0" fill="#FA6934" rx="14" ry="14" transform="translate(47.216,88.658) translate(0,0) translate(0,0)"/>
        <ellipse fill="#000E29" rx="14" ry="14" transform="translate(208,87)"/>
        <path d="M125.284,383L379.284,383L379.284,428C379.284,433.523,374.807,438,369.284,438L135.284,438C129.761,438,125.284,433.523,125.284,428L125.284,383Z" fill="#000E29" transform="translate(127,172.5) translate(-252.284,-410.5)"/>
        <rect width="218" height="19" fill="#00143D" transform="translate(127,172.5) translate(-109,-9.5)"/>
        <rect width="45" height="39" fill="#00143D" transform="translate(216.216,31.5) translate(-22.5,-19.5)"/>
    </g>
    <path id="arm-links" d="M57.4707,258C57.4707,258,22.5,408.5,178.5,464.5" stroke="#000E29" stroke-width="18.6" stroke-miterlimit="1.5" stroke-linecap="round" stroke-linejoin="round" transform="translate(88.3775,295.788) translate(-88.3775,-295.788)"/>
    <g id="Foto" visibility="hidden" transform="translate(250.373,456.5) translate(-122.265,-45.5)">
        <path id="_a1" d="M184.901,437L354.623,437L354.623,439.076C356.357,439.262,216.235,439.296,166.561,439.177C155.582,439.151,149.022,439.117,149.388,439.076L149.388,437Z" fill="#F7F7E7" transform="translate(121.642,19.5) translate(0,0) translate(-250.373,-456.5)"/>
        <path id="_a2" d="M170.8,415.185L331.8,415.185L345.8,415.185L156.8,415.185Z" fill="#000E29" transform="translate(120.842,41.815) translate(0,0) translate(-249.75,-457)"/>
    </g>
</svg>
